<svg width="146" height="146" viewBox="0 0 146 146" fill="none" xmlns="http://www.w3.org/2000/svg">
<circle cx="73" cy="73" r="73" fill="#EAEAEA"/>
<path d="M67.6146 90.951H78.3851C87.3605 90.951 90.9507 87.3608 90.9507 78.3854V67.6149C90.9507 58.6395 87.3605 55.0493 78.3851 55.0493H67.6146C58.6392 55.0493 55.0491 58.6395 55.0491 67.6149V78.3854C55.0491 87.3608 58.6392 90.951 67.6146 90.951Z" stroke="#292D32" stroke-width="1.5" stroke-linecap="round" stroke-linejoin="round"/>
<path d="M67.6148 69.4098C69.5976 69.4098 71.205 67.8024 71.205 65.8197C71.205 63.8369 69.5976 62.2295 67.6148 62.2295C65.632 62.2295 64.0247 63.8369 64.0247 65.8197C64.0247 67.8024 65.632 69.4098 67.6148 69.4098Z" stroke="#292D32" stroke-width="1.5" stroke-linecap="round" stroke-linejoin="round"/>
<path d="M56.252 85.4759L65.1017 79.5342C66.5198 78.5828 68.5662 78.6905 69.8407 79.7855L70.4331 80.3061C71.8333 81.5088 74.0951 81.5088 75.4952 80.3061L82.9628 73.8976C84.3629 72.6949 86.6247 72.6949 88.0249 73.8976L90.9509 76.4107" stroke="#292D32" stroke-width="1.5" stroke-linecap="round" stroke-linejoin="round"/>
</svg>
