<svg width="60" height="60" viewBox="0 0 60 60" fill="none" xmlns="http://www.w3.org/2000/svg">
<path d="M42 1C51.3888 1 59 8.61116 59 18V42C59 51.3888 51.3888 59 42 59H18C8.61116 59 1 51.3888 1 42V18C1 8.61116 8.61116 1 18 1H42Z" fill="white"/>
<path d="M42 1C51.3888 1 59 8.61116 59 18V42C59 51.3888 51.3888 59 42 59H18C8.61116 59 1 51.3888 1 42V18C1 8.61116 8.61116 1 18 1H42Z" stroke="white" stroke-width="2"/>
<path d="M29 20C33.9706 20 38 24.0294 38 29C38 31.1247 37.2616 33.0757 36.0303 34.6152L39.707 38.292C40.0976 38.6825 40.0976 39.3155 39.707 39.7061C39.3165 40.0966 38.6835 40.0966 38.293 39.7061L34.6162 36.0293C33.0765 37.2611 31.1252 38 29 38C24.0294 38 20 33.9706 20 29C20 24.0294 24.0294 20 29 20ZM29 22C25.134 22 22 25.134 22 29C22 32.866 25.134 36 29 36C32.866 36 36 32.866 36 29C36 25.134 32.866 22 29 22Z" fill="url(#paint0_linear_2243_2595)"/>
<defs>
<linearGradient id="paint0_linear_2243_2595" x1="18.685" y1="44.582" x2="42.259" y2="43.9169" gradientUnits="userSpaceOnUse">
<stop stop-color="#003544"/>
<stop offset="1" stop-color="#0085AA"/>
</linearGradient>
</defs>
</svg>
